#define gg_width 16
#define gg_height 16
static unsigned char gg_bits[] = {
   0x00, 0x00, 0x00, 0x00, 0x00, 0x00, 0x00, 0x00,
   0x00, 0x00, 0x30, 0x18, 0x08, 0x04, 0x08, 0x04,
   0x68, 0x34, 0x48, 0x24, 0x30, 0x19, 0x00, 0x00,
   0x00, 0x00, 0x00, 0x00, 0x00, 0x00, 0x00, 0x00};
